<svg id="svg" version="1.1" xmlns="http://www.w3.org/2000/svg" xmlns:xlink="http://www.w3.org/1999/xlink" width="400" height="403.5175879396985" viewBox="0, 0, 400,403.5175879396985"><g id="svgg"><path id="path0" d="M177.400 0.256 C 139.577 4.017,106.002 16.813,77.742 38.239 C -32.637 121.921,-23.586 288.992,95.200 360.472 C 160.644 399.854,247.982 395.044,308.285 348.737 C 310.531 347.012,312.508 345.600,312.678 345.600 C 312.848 345.600,325.140 357.727,339.993 372.549 C 364.589 397.093,367.232 399.610,369.600 400.743 C 388.558 409.813,407.068 390.131,396.927 371.686 C 395.790 369.618,390.876 364.475,369.272 342.746 C 354.823 328.213,342.941 316.163,342.870 315.969 C 342.798 315.776,344.520 313.228,346.697 310.309 C 355.711 298.219,364.649 282.933,369.447 271.400 C 389.864 222.321,391.095 172.212,373.059 124.400 C 370.482 117.569,363.538 102.572,361.575 99.600 C 361.212 99.050,359.868 96.800,358.589 94.600 C 354.049 86.790,342.832 70.860,340.422 68.800 C 340.294 68.690,339.112 67.340,337.796 65.800 C 310.692 34.078,271.173 11.336,229.000 3.190 C 215.533 0.589,189.141 -0.912,177.400 0.256 M189.400 20.800 L 189.400 34.600 165.700 34.703 C 150.377 34.770,142.000 34.667,142.000 34.413 C 142.000 32.813,154.099 21.628,160.408 17.395 C 169.099 11.564,182.618 6.508,188.400 6.928 L 189.400 7.000 189.400 20.800 M201.200 7.405 C 211.504 9.036,222.551 14.458,232.439 22.737 C 236.202 25.888,244.000 33.797,244.000 34.463 C 244.000 34.648,233.290 34.800,220.200 34.800 L 196.400 34.800 196.400 20.800 C 196.400 9.866,196.509 6.800,196.900 6.802 C 197.175 6.802,199.110 7.074,201.200 7.405 M158.400 10.165 C 158.400 10.256,157.185 11.189,155.700 12.240 C 148.722 17.175,140.409 24.998,135.200 31.532 L 132.600 34.793 114.300 34.796 C 103.271 34.799,96.000 34.652,96.000 34.428 C 96.000 33.892,105.961 28.347,113.105 24.905 C 126.477 18.463,138.850 14.263,156.200 10.277 C 157.305 10.023,158.400 9.967,158.400 10.165 M234.223 11.398 C 244.933 13.904,256.580 17.584,263.400 20.617 C 264.060 20.911,266.670 22.073,269.200 23.199 C 276.626 26.505,289.983 33.764,289.995 34.500 C 289.998 34.665,281.740 34.800,271.644 34.800 L 253.288 34.800 249.697 30.500 C 243.590 23.187,235.685 15.983,227.993 10.721 C 226.523 9.716,227.470 9.818,234.223 11.398 M127.200 41.851 C 127.200 41.990,126.058 43.925,124.663 46.151 C 116.298 59.499,109.852 73.440,103.833 91.200 L 101.325 98.600 67.263 98.702 C 44.968 98.769,33.200 98.668,33.200 98.408 C 33.200 97.559,39.483 88.000,44.385 81.393 C 53.865 68.613,66.491 55.792,80.000 45.226 L 84.600 41.629 105.900 41.614 C 117.615 41.606,127.200 41.713,127.200 41.851 M189.503 64.481 L 189.607 87.163 188.303 87.362 C 187.586 87.472,185.380 87.669,183.400 87.801 C 171.661 88.583,156.562 92.674,146.313 97.847 L 144.427 98.800 126.613 98.800 C 113.332 98.800,108.800 98.682,108.800 98.334 C 108.800 97.545,112.317 87.399,114.583 81.652 C 120.286 67.185,126.406 55.531,134.317 44.080 L 136.034 41.594 162.717 41.697 L 189.400 41.800 189.503 64.481 M249.852 41.906 C 251.674 43.092,260.618 58.172,265.395 68.112 C 269.429 76.507,277.200 96.596,277.200 98.630 C 277.200 98.723,269.101 98.800,259.203 98.800 L 241.205 98.800 237.103 96.955 C 226.007 91.963,214.999 88.983,204.000 87.993 C 201.250 87.745,198.415 87.457,197.700 87.353 L 196.400 87.164 196.400 64.382 L 196.400 41.600 222.900 41.606 C 237.475 41.609,249.603 41.744,249.852 41.906 M303.843 43.656 C 316.655 53.209,329.193 65.556,339.432 78.702 C 344.732 85.507,352.800 97.477,352.800 98.535 C 352.800 98.681,337.452 98.800,318.694 98.800 L 284.588 98.800 282.455 92.300 C 276.787 75.026,268.054 56.352,260.167 44.640 C 259.415 43.524,258.800 42.383,258.800 42.105 C 258.800 41.705,263.176 41.600,279.943 41.600 L 301.086 41.600 303.843 43.656 M98.970 105.952 C 99.090 106.145,98.572 108.710,97.819 111.652 C 94.395 125.034,91.111 143.938,89.960 156.888 C 89.700 159.810,89.311 162.425,89.095 162.700 C 88.598 163.333,10.197 163.443,9.807 162.811 C 9.251 161.912,12.681 147.064,15.676 137.400 C 18.822 127.253,26.538 108.926,28.825 106.170 C 29.373 105.509,98.563 105.294,98.970 105.952 M131.721 105.854 C 131.861 105.994,130.766 107.018,129.288 108.129 C 118.465 116.261,109.375 126.087,102.207 137.401 C 100.451 140.173,98.952 142.256,98.877 142.030 C 98.350 140.449,105.227 108.171,106.532 106.100 C 106.867 105.568,131.197 105.331,131.721 105.854 M359.429 110.600 C 364.302 120.232,369.386 133.619,372.416 144.800 C 374.005 150.662,376.443 162.406,376.165 162.856 C 375.907 163.273,297.585 163.310,296.955 162.894 C 296.711 162.732,296.293 160.260,296.027 157.400 C 294.755 143.735,291.606 125.505,288.201 112.100 C 287.405 108.964,286.865 106.218,287.002 105.997 C 287.166 105.732,299.089 105.630,322.125 105.698 L 357.000 105.800 359.429 110.600 M280.931 111.700 C 284.030 123.846,287.722 142.812,287.107 143.426 C 287.014 143.520,285.812 141.707,284.436 139.398 C 277.676 128.050,268.103 117.365,257.300 109.112 C 255.265 107.557,253.600 106.221,253.600 106.143 C 253.600 106.064,259.422 106.000,266.538 106.000 L 279.476 106.000 280.931 111.700 M203.400 113.830 C 266.384 121.551,296.147 198.403,255.130 247.400 C 211.929 299.006,128.252 279.008,113.406 213.530 C 100.688 157.438,146.362 106.838,203.400 113.830 M88.400 170.237 C 88.400 170.368,88.049 172.213,87.619 174.337 C 84.952 187.526,85.019 203.011,87.799 216.400 C 89.415 224.180,89.703 225.954,89.455 226.600 C 89.205 227.252,10.002 227.551,9.998 226.900 C 9.998 226.735,9.726 224.980,9.394 223.000 C 7.021 208.830,6.515 185.908,8.266 171.900 L 8.503 170.000 48.452 170.000 C 70.423 170.000,88.400 170.107,88.400 170.237 M377.335 170.300 C 378.035 171.449,378.564 181.376,378.566 193.400 C 378.568 207.322,378.223 212.166,376.460 222.960 L 375.800 227.000 336.048 227.102 L 296.297 227.204 296.575 223.502 C 296.728 221.466,297.116 218.641,297.438 217.225 C 300.131 205.377,300.334 189.561,297.971 175.660 C 297.547 173.163,297.200 170.868,297.200 170.560 C 297.200 169.943,376.960 169.684,377.335 170.300 M91.361 242.100 C 92.586 250.944,95.694 267.126,97.564 274.400 C 99.359 281.384,101.094 287.671,101.571 288.926 C 102.504 291.378,105.107 291.200,68.232 291.200 L 34.464 291.200 31.808 286.500 C 22.929 270.787,11.600 241.556,11.600 234.358 C 11.600 234.150,28.040 234.000,50.919 234.000 L 90.239 234.000 91.361 242.100 M374.393 234.300 C 374.389 234.465,373.871 236.580,373.241 239.000 C 368.546 257.036,362.830 271.180,353.884 286.900 L 351.437 291.200 334.762 291.200 L 318.087 291.200 312.344 285.362 C 302.703 275.563,299.346 273.493,292.204 272.944 L 288.744 272.678 289.009 271.639 C 290.509 265.768,293.537 249.521,294.385 242.800 C 294.621 240.930,295.007 238.185,295.243 236.700 L 295.672 234.000 335.036 234.000 C 356.686 234.000,374.397 234.135,374.393 234.300 M286.212 250.817 C 284.875 258.969,281.397 274.763,280.810 275.350 C 280.452 275.708,272.000 268.261,272.000 267.587 C 272.000 267.414,273.316 265.682,274.924 263.737 C 278.329 259.619,282.195 254.252,283.811 251.400 C 286.682 246.331,286.958 246.264,286.212 250.817 M104.123 255.467 C 111.364 266.169,121.444 276.330,132.000 283.569 C 135.500 285.969,141.460 289.593,141.933 289.609 C 142.080 289.614,142.650 289.971,143.200 290.403 C 144.197 291.185,144.153 291.187,126.808 291.094 L 109.416 291.000 108.097 286.600 C 104.627 275.014,100.380 256.621,99.786 250.600 L 99.549 248.200 100.874 250.413 C 101.603 251.630,103.065 253.905,104.123 255.467 M268.895 279.139 L 272.934 283.077 271.920 285.639 C 271.363 287.047,270.784 288.875,270.635 289.700 L 270.364 291.200 255.693 291.200 C 243.386 291.200,241.149 291.115,241.811 290.670 C 242.245 290.379,243.860 289.446,245.400 288.598 C 249.722 286.217,257.058 281.120,260.600 278.038 C 264.615 274.545,264.116 274.478,268.895 279.139 M105.420 300.500 C 110.667 316.613,120.901 336.397,131.264 350.455 C 132.989 352.796,134.400 354.821,134.400 354.955 C 134.400 355.090,126.615 355.198,117.100 355.196 L 99.800 355.192 95.188 352.296 C 73.546 338.707,55.055 321.132,40.475 300.294 L 39.150 298.400 71.943 298.400 L 104.736 298.400 105.420 300.500 M167.904 299.560 C 172.021 300.566,182.880 302.167,187.800 302.494 L 189.400 302.600 189.503 328.900 L 189.606 355.200 166.837 355.200 L 144.068 355.200 141.900 352.700 C 131.136 340.286,121.769 323.680,113.226 301.870 C 112.552 300.148,112.000 298.663,112.000 298.570 C 112.000 298.476,123.509 298.400,137.576 298.400 L 163.152 298.400 167.904 299.560 M271.452 300.744 L 272.305 303.088 271.488 305.044 C 263.981 323.029,258.043 334.049,249.850 345.200 C 248.314 347.290,245.891 350.395,244.465 352.100 L 241.872 355.200 219.136 355.200 L 196.400 355.200 196.400 328.800 L 196.400 302.400 197.866 302.400 C 200.924 302.400,212.687 300.677,216.953 299.604 L 221.400 298.485 246.000 298.443 L 270.600 298.401 271.452 300.744 M343.301 303.247 C 341.376 305.914,339.260 308.713,338.600 309.467 L 337.400 310.840 331.205 304.620 L 325.010 298.400 335.906 298.400 L 346.803 298.400 343.301 303.247 M307.591 340.214 C 307.608 340.987,295.668 349.460,288.548 353.730 L 286.095 355.200 268.648 355.200 C 259.051 355.200,251.200 355.113,251.200 355.006 C 251.200 354.900,252.347 353.325,253.749 351.506 C 261.141 341.915,268.585 329.020,274.592 315.400 C 275.853 312.540,276.978 310.047,277.091 309.859 C 277.326 309.471,307.578 339.579,307.591 340.214 M144.322 365.300 C 148.469 369.225,152.934 372.900,156.100 374.993 C 158.331 376.468,159.126 377.482,157.700 377.034 C 157.315 376.913,155.020 376.374,152.600 375.837 C 140.642 373.184,127.597 368.847,117.129 364.044 C 112.718 362.020,112.817 362.000,127.394 362.000 L 140.835 362.000 144.322 365.300 M189.508 371.100 L 189.615 380.000 188.508 379.998 C 183.263 379.991,174.432 377.331,166.976 373.513 C 161.858 370.892,151.600 363.455,151.600 362.366 C 151.600 362.138,158.982 362.033,170.500 362.096 L 189.400 362.200 189.508 371.100 M234.173 362.357 C 234.782 363.342,222.917 371.627,216.600 374.628 C 210.217 377.660,201.864 380.000,197.423 380.000 L 196.400 380.000 196.400 371.267 C 196.400 366.463,196.520 362.413,196.667 362.267 C 197.075 361.858,233.920 361.947,234.173 362.357 M271.600 362.405 C 271.600 364.181,245.465 373.241,231.888 376.172 C 226.739 377.284,226.616 377.268,228.674 375.767 C 234.427 371.568,237.888 368.769,241.200 365.635 L 245.000 362.040 258.300 362.020 C 267.024 362.007,271.600 362.139,271.600 362.405 " stroke="none" fill="#0c0e16" fill-rule="evenodd"></path><path id="path1" d="M169.105 1.083 C 169.602 1.179,170.322 1.175,170.705 1.075 C 171.087 0.975,170.680 0.896,169.800 0.901 C 168.920 0.905,168.607 0.987,169.105 1.083 M215.300 1.076 C 215.685 1.176,216.315 1.176,216.700 1.076 C 217.085 0.975,216.770 0.893,216.000 0.893 C 215.230 0.893,214.915 0.975,215.300 1.076 M188.300 7.088 L 189.200 7.253 189.200 20.823 L 189.200 34.394 165.500 34.502 L 141.800 34.610 165.600 34.605 L 189.400 34.600 189.400 20.800 L 189.400 7.000 188.400 6.961 C 187.530 6.928,187.517 6.944,188.300 7.088 M157.102 10.266 C 157.379 10.377,157.503 10.633,157.379 10.834 C 157.016 11.421,157.456 11.255,158.000 10.600 C 158.419 10.095,158.348 10.005,157.549 10.032 C 157.027 10.049,156.826 10.154,157.102 10.266 M227.200 10.241 C 227.200 10.278,227.695 10.630,228.300 11.024 C 229.162 11.585,229.288 11.603,228.883 11.109 C 228.461 10.593,228.461 10.440,228.883 10.269 C 229.167 10.154,228.905 10.085,228.300 10.117 C 227.695 10.149,227.200 10.205,227.200 10.241 M168.400 12.600 C 167.850 12.914,167.580 13.172,167.800 13.172 C 168.020 13.172,168.650 12.914,169.200 12.600 C 169.750 12.286,170.020 12.028,169.800 12.028 C 169.580 12.028,168.950 12.286,168.400 12.600 M138.600 14.800 C 138.096 15.017,138.022 15.144,138.400 15.144 C 138.730 15.144,139.360 14.989,139.800 14.800 C 140.304 14.583,140.378 14.456,140.000 14.456 C 139.670 14.456,139.040 14.611,138.600 14.800 M113.200 16.800 C 112.430 17.222,111.980 17.566,112.200 17.566 C 112.420 17.566,113.230 17.222,114.000 16.800 C 114.770 16.378,115.220 16.034,115.000 16.034 C 114.780 16.034,113.970 16.378,113.200 16.800 M146.975 18.900 L 145.800 20.200 147.100 19.025 C 148.312 17.930,148.584 17.600,148.275 17.600 C 148.206 17.600,147.621 18.185,146.975 18.900 M243.000 23.200 C 244.971 25.180,246.673 26.800,246.783 26.800 C 246.893 26.800,245.371 25.180,243.400 23.200 C 241.429 21.220,239.727 19.600,239.617 19.600 C 239.507 19.600,241.029 21.220,243.000 23.200 M237.800 28.000 C 239.771 29.980,241.473 31.600,241.583 31.600 C 241.693 31.600,240.171 29.980,238.200 28.000 C 236.229 26.020,234.527 24.400,234.417 24.400 C 234.307 24.400,235.829 26.020,237.800 28.000 M147.578 27.900 L 146.200 29.400 147.700 28.022 C 148.525 27.263,149.200 26.588,149.200 26.522 C 149.200 26.216,148.862 26.504,147.578 27.900 M252.370 33.700 L 253.339 34.800 271.670 34.800 C 281.751 34.800,290.000 34.665,290.000 34.500 C 290.000 34.335,281.781 34.249,271.734 34.308 L 253.469 34.416 252.434 33.508 L 251.400 32.600 252.370 33.700 M96.267 33.867 C 96.120 34.013,96.000 34.283,96.000 34.467 C 96.000 34.881,132.682 34.914,132.938 34.500 C 133.040 34.335,124.848 34.249,114.733 34.308 C 102.311 34.381,96.425 34.283,96.595 34.008 C 96.879 33.549,96.673 33.460,96.267 33.867 M243.360 33.935 C 243.571 34.277,237.632 34.421,219.922 34.500 L 196.200 34.606 220.100 34.703 C 242.539 34.794,245.046 34.693,243.538 33.762 C 243.253 33.586,243.185 33.652,243.360 33.935 M77.400 38.235 L 76.200 39.266 77.500 38.406 C 78.215 37.933,78.800 37.468,78.800 37.373 C 78.800 37.073,78.631 37.178,77.400 38.235 M83.949 42.300 C 83.461 42.923,83.472 42.944,84.049 42.493 C 84.559 42.095,89.270 42.009,105.949 42.093 C 117.637 42.152,127.200 42.065,127.200 41.900 C 127.200 41.166,84.529 41.561,83.949 42.300 M135.571 42.297 C 135.118 42.895,135.122 42.926,135.599 42.500 C 136.036 42.111,142.029 42.000,162.677 42.000 L 189.193 42.000 189.302 64.600 L 189.410 87.200 189.405 64.500 L 189.400 41.800 162.751 41.697 C 137.730 41.601,136.070 41.637,135.571 42.297 M196.400 41.900 C 196.400 42.172,216.055 42.168,240.400 41.892 C 245.570 41.833,237.785 41.743,223.100 41.692 C 208.415 41.642,196.400 41.735,196.400 41.900 M269.300 41.900 C 275.185 41.962,284.815 41.962,290.700 41.900 C 296.585 41.837,291.770 41.786,280.000 41.786 C 268.230 41.786,263.415 41.837,269.300 41.900 M303.200 43.346 C 303.200 43.456,303.740 43.930,304.400 44.400 C 305.060 44.870,305.600 45.164,305.600 45.054 C 305.600 44.944,305.060 44.470,304.400 44.000 C 303.740 43.530,303.200 43.236,303.200 43.346 M321.200 49.000 C 321.946 49.770,322.647 50.400,322.757 50.400 C 322.867 50.400,322.346 49.770,321.600 49.000 C 320.854 48.230,320.153 47.600,320.043 47.600 C 319.933 47.600,320.454 48.230,321.200 49.000 M60.000 53.000 C 58.361 54.650,57.110 56.000,57.220 56.000 C 57.330 56.000,58.761 54.650,60.400 53.000 C 62.039 51.350,63.290 50.000,63.180 50.000 C 63.070 50.000,61.639 51.350,60.000 53.000 M72.575 51.300 L 71.400 52.600 72.700 51.425 C 73.415 50.779,74.000 50.194,74.000 50.125 C 74.000 49.816,73.670 50.088,72.575 51.300 M328.393 55.700 C 332.287 59.694,332.800 60.182,332.800 59.893 C 332.800 59.834,330.865 57.899,328.500 55.593 L 324.200 51.400 328.393 55.700 M317.400 55.200 C 318.259 56.080,319.052 56.800,319.162 56.800 C 319.272 56.800,318.659 56.080,317.800 55.200 C 316.941 54.320,316.148 53.600,316.038 53.600 C 315.928 53.600,316.541 54.320,317.400 55.200 M53.789 59.300 L 51.000 62.200 53.900 59.411 C 56.594 56.820,56.983 56.400,56.689 56.400 C 56.628 56.400,55.323 57.705,53.789 59.300 M62.192 60.900 L 58.600 64.600 62.300 61.008 C 64.335 59.033,66.000 57.368,66.000 57.308 C 66.000 57.018,65.528 57.464,62.192 60.900 M323.583 60.900 C 324.564 61.945,325.419 62.800,325.483 62.800 C 325.784 62.800,325.466 62.441,323.700 60.783 L 321.800 59.000 323.583 60.900 M269.400 60.800 C 269.741 61.460,270.111 62.000,270.221 62.000 C 270.331 62.000,270.141 61.460,269.800 60.800 C 269.459 60.140,269.089 59.600,268.979 59.600 C 268.869 59.600,269.059 60.140,269.400 60.800 M48.778 64.700 L 47.400 66.200 48.900 64.822 C 49.725 64.063,50.400 63.388,50.400 63.322 C 50.400 63.016,50.062 63.304,48.778 64.700 M338.825 67.031 C 339.581 67.928,340.281 68.597,340.380 68.517 C 340.479 68.438,339.860 67.704,339.005 66.887 L 337.450 65.400 338.825 67.031 M112.465 68.217 C 111.795 69.688,111.923 70.002,112.647 68.665 C 112.986 68.040,113.188 67.454,113.096 67.363 C 113.005 67.271,112.721 67.656,112.465 68.217 M54.575 68.900 L 53.400 70.200 54.700 69.025 C 55.912 67.930,56.184 67.600,55.875 67.600 C 55.806 67.600,55.221 68.185,54.575 68.900 M332.000 70.125 C 332.000 70.194,332.585 70.779,333.300 71.425 L 334.600 72.600 333.425 71.300 C 332.330 70.088,332.000 69.816,332.000 70.125 M110.865 71.817 C 110.195 73.288,110.323 73.602,111.047 72.265 C 111.386 71.640,111.588 71.054,111.496 70.963 C 111.405 70.871,111.121 71.256,110.865 71.817 M274.828 72.200 C 274.828 72.420,275.086 73.050,275.400 73.600 C 275.714 74.150,275.972 74.420,275.972 74.200 C 275.972 73.980,275.714 73.350,275.400 72.800 C 275.086 72.250,274.828 71.980,274.828 72.200 M349.600 80.800 C 350.070 81.460,350.544 82.000,350.654 82.000 C 350.764 82.000,350.470 81.460,350.000 80.800 C 349.530 80.140,349.056 79.600,348.946 79.600 C 348.836 79.600,349.130 80.140,349.600 80.800 M344.000 85.200 C 344.470 85.860,344.944 86.400,345.054 86.400 C 345.164 86.400,344.870 85.860,344.400 85.200 C 343.930 84.540,343.456 84.000,343.346 84.000 C 343.236 84.000,343.530 84.540,344.000 85.200 M184.700 87.489 C 185.415 87.578,186.585 87.578,187.300 87.489 C 188.015 87.401,187.430 87.328,186.000 87.328 C 184.570 87.328,183.985 87.401,184.700 87.489 M198.500 87.487 C 199.105 87.578,200.095 87.578,200.700 87.487 C 201.305 87.395,200.810 87.320,199.600 87.320 C 198.390 87.320,197.895 87.395,198.500 87.487 M180.900 87.876 C 181.285 87.976,181.915 87.976,182.300 87.876 C 182.685 87.775,182.370 87.693,181.600 87.693 C 180.830 87.693,180.515 87.775,180.900 87.876 M203.505 87.883 C 204.002 87.979,204.722 87.975,205.105 87.875 C 205.487 87.775,205.080 87.696,204.200 87.701 C 203.320 87.705,203.007 87.787,203.505 87.883 M363.400 103.200 C 363.741 103.860,364.111 104.400,364.221 104.400 C 364.331 104.400,364.141 103.860,363.800 103.200 C 363.459 102.540,363.089 102.000,362.979 102.000 C 362.869 102.000,363.059 102.540,363.400 103.200 M63.871 105.899 C 91.254 105.982,98.778 106.111,98.910 106.502 C 99.005 106.785,99.058 106.740,99.033 106.400 C 98.994 105.872,94.813 105.800,63.995 105.797 L 29.000 105.793 63.871 105.899 M111.000 105.883 C 122.047 106.166,131.908 106.174,131.739 105.900 C 131.636 105.735,125.938 105.638,119.076 105.686 C 112.214 105.733,108.580 105.822,111.000 105.883 M304.500 105.900 C 314.125 105.960,329.875 105.960,339.500 105.900 C 349.125 105.840,341.250 105.791,322.000 105.791 C 302.750 105.791,294.875 105.840,304.500 105.900 M104.629 112.229 C 104.481 112.815,104.438 113.372,104.532 113.466 C 104.627 113.560,104.824 113.158,104.971 112.571 C 105.119 111.985,105.162 111.428,105.068 111.334 C 104.973 111.240,104.776 111.642,104.629 112.229 M97.029 113.429 C 96.881 114.015,96.838 114.572,96.932 114.666 C 97.027 114.760,97.224 114.358,97.371 113.771 C 97.519 113.185,97.562 112.628,97.468 112.534 C 97.373 112.440,97.176 112.842,97.029 113.429 M186.307 113.490 C 187.026 113.579,188.106 113.577,188.707 113.486 C 189.308 113.395,188.720 113.322,187.400 113.324 C 186.080 113.326,185.588 113.401,186.307 113.490 M197.305 113.487 C 197.914 113.579,198.814 113.577,199.305 113.482 C 199.797 113.387,199.300 113.311,198.200 113.314 C 197.100 113.317,196.697 113.395,197.305 113.487 M265.000 115.600 C 265.859 116.480,266.652 117.200,266.762 117.200 C 266.872 117.200,266.259 116.480,265.400 115.600 C 264.541 114.720,263.748 114.000,263.638 114.000 C 263.528 114.000,264.141 114.720,265.000 115.600 M116.589 118.900 L 113.800 121.800 116.700 119.011 C 118.295 117.477,119.600 116.172,119.600 116.111 C 119.600 115.817,119.180 116.206,116.589 118.900 M102.650 120.450 C 102.317 122.117,102.640 122.440,103.000 120.800 C 103.152 120.109,103.193 119.459,103.091 119.358 C 102.989 119.256,102.791 119.747,102.650 120.450 M271.400 122.000 C 272.259 122.880,273.052 123.600,273.162 123.600 C 273.272 123.600,272.659 122.880,271.800 122.000 C 270.941 121.120,270.148 120.400,270.038 120.400 C 269.928 120.400,270.541 121.120,271.400 122.000 M111.775 124.100 L 110.600 125.400 111.900 124.225 C 113.112 123.130,113.384 122.800,113.075 122.800 C 113.006 122.800,112.421 123.385,111.775 124.100 M375.029 130.000 C 375.176 130.550,375.464 131.270,375.667 131.600 C 375.925 132.017,375.957 131.895,375.771 131.200 C 375.624 130.650,375.336 129.930,375.133 129.600 C 374.875 129.183,374.843 129.305,375.029 130.000 M137.586 134.700 L 135.400 137.000 137.700 134.814 C 139.837 132.782,140.183 132.400,139.886 132.400 C 139.824 132.400,138.789 133.435,137.586 134.700 M250.600 137.600 C 251.459 138.480,252.252 139.200,252.362 139.200 C 252.472 139.200,251.859 138.480,251.000 137.600 C 250.141 136.720,249.348 136.000,249.238 136.000 C 249.128 136.000,249.741 136.720,250.600 137.600 M132.800 139.400 C 131.828 140.390,131.123 141.200,131.233 141.200 C 131.343 141.200,132.228 140.390,133.200 139.400 C 134.172 138.410,134.877 137.600,134.767 137.600 C 134.657 137.600,133.772 138.410,132.800 139.400 M208.394 140.300 C 207.493 141.113,206.548 143.015,204.767 147.600 C 202.611 153.149,197.026 167.566,193.920 175.600 C 193.282 177.250,192.348 179.680,191.843 181.000 C 191.049 183.080,188.959 188.464,184.314 200.400 C 183.672 202.050,182.812 204.300,182.403 205.400 C 181.994 206.500,180.323 210.820,178.690 215.000 C 168.199 241.851,167.517 243.732,167.750 245.171 C 168.450 249.483,173.928 251.012,176.454 247.600 C 177.051 246.795,185.249 226.356,188.408 217.800 C 188.814 216.700,189.672 214.450,190.314 212.800 C 190.956 211.150,192.705 206.650,194.200 202.800 C 195.695 198.950,197.444 194.450,198.086 192.800 C 198.728 191.150,199.589 188.900,200.000 187.800 C 200.411 186.700,201.272 184.450,201.914 182.800 C 202.556 181.150,204.305 176.650,205.800 172.800 C 207.295 168.950,209.044 164.450,209.686 162.800 C 210.328 161.150,211.188 158.900,211.596 157.800 C 212.005 156.700,213.252 153.465,214.369 150.612 C 216.541 145.063,216.832 143.055,215.734 141.196 C 214.369 138.885,210.486 138.411,208.394 140.300 M98.800 141.224 C 98.800 141.897,98.956 142.351,99.146 142.233 C 99.469 142.034,99.293 140.000,98.953 140.000 C 98.869 140.000,98.800 140.551,98.800 141.224 M286.684 142.400 C 286.569 142.839,286.638 143.300,286.838 143.423 C 287.037 143.546,287.200 143.187,287.200 142.624 C 287.200 141.398,286.972 141.299,286.684 142.400 M91.293 144.000 C 91.293 144.770,91.375 145.085,91.476 144.700 C 91.576 144.315,91.576 143.685,91.476 143.300 C 91.375 142.915,91.293 143.230,91.293 144.000 M373.268 149.000 C 373.262 149.440,373.411 150.160,373.600 150.600 C 374.038 151.619,374.038 150.568,373.600 149.200 C 373.343 148.396,373.277 148.357,373.268 149.000 M296.093 158.000 C 296.093 158.770,296.175 159.085,296.276 158.700 C 296.376 158.315,296.376 157.685,296.276 157.300 C 296.175 156.915,296.093 157.230,296.093 158.000 M217.448 158.024 C 213.501 159.172,212.584 163.730,215.708 166.677 C 216.882 167.786,239.419 185.590,246.910 191.328 C 248.621 192.638,250.101 193.839,250.198 193.997 C 250.386 194.301,247.641 196.524,227.600 212.299 C 213.697 223.242,213.083 223.895,213.956 226.810 C 215.063 230.506,219.175 231.599,222.469 229.073 C 224.055 227.857,228.580 224.309,239.397 215.800 C 241.634 214.040,247.038 209.810,251.406 206.400 C 263.165 197.219,263.400 196.981,263.400 194.285 C 263.400 191.576,263.441 191.624,256.430 186.118 C 253.444 183.772,249.380 180.567,247.400 178.994 C 238.812 172.174,222.900 159.716,221.800 158.951 C 220.275 157.890,218.907 157.599,217.448 158.024 M163.800 158.485 C 163.360 158.738,158.050 162.839,152.000 167.597 C 145.950 172.355,136.792 179.557,131.648 183.600 C 117.347 194.842,117.216 193.552,134.000 206.706 C 140.050 211.447,146.530 216.543,148.400 218.030 C 163.605 230.121,164.004 230.400,166.074 230.400 C 169.758 230.400,172.185 226.753,170.630 223.553 C 169.988 222.230,166.167 219.115,142.829 200.884 C 134.475 194.358,134.218 194.073,135.773 193.054 C 136.328 192.690,142.772 187.669,150.091 181.895 C 157.411 176.122,164.961 170.185,166.868 168.702 C 170.651 165.762,171.462 164.405,170.979 161.828 C 170.421 158.855,166.405 156.985,163.800 158.485 M89.309 160.800 C 89.309 161.790,89.387 162.195,89.482 161.700 C 89.578 161.205,89.578 160.395,89.482 159.900 C 89.387 159.405,89.309 159.810,89.309 160.800 M9.728 162.200 C 9.810 162.994,10.106 163.000,49.205 163.003 L 88.600 163.006 49.329 162.901 C 12.367 162.802,10.046 162.755,9.852 162.098 C 9.693 161.559,9.665 161.582,9.728 162.200 M376.000 162.333 C 376.000 162.685,366.273 162.824,336.500 162.898 L 297.000 162.996 336.378 163.100 C 373.726 163.199,377.247 163.114,376.273 162.140 C 376.123 161.990,376.000 162.077,376.000 162.333 M267.228 162.600 C 267.228 162.820,267.486 163.450,267.800 164.000 C 268.114 164.550,268.372 164.820,268.372 164.600 C 268.372 164.380,268.114 163.750,267.800 163.200 C 267.486 162.650,267.228 162.380,267.228 162.600 M297.293 171.200 C 297.293 171.970,297.375 172.285,297.476 171.900 C 297.576 171.515,297.576 170.885,297.476 170.500 C 297.375 170.115,297.293 170.430,297.293 171.200 M0.901 174.200 C 0.905 175.080,0.987 175.393,1.083 174.895 C 1.179 174.398,1.175 173.678,1.075 173.295 C 0.975 172.913,0.896 173.320,0.901 174.200 M377.693 174.400 C 377.693 175.170,377.775 175.485,377.876 175.100 C 377.976 174.715,377.976 174.085,377.876 173.700 C 377.775 173.315,377.693 173.630,377.693 174.400 M384.909 175.600 C 384.909 176.590,384.987 176.995,385.082 176.500 C 385.178 176.005,385.178 175.195,385.082 174.700 C 384.987 174.205,384.909 174.610,384.909 175.600 M0.501 178.200 C 0.505 179.080,0.587 179.393,0.683 178.895 C 0.779 178.398,0.775 177.678,0.675 177.295 C 0.575 176.913,0.496 177.320,0.501 178.200 M378.109 178.800 C 378.109 179.790,378.187 180.195,378.282 179.700 C 378.378 179.205,378.378 178.395,378.282 177.900 C 378.187 177.405,378.109 177.810,378.109 178.800 M385.320 180.400 C 385.320 181.610,385.395 182.105,385.487 181.500 C 385.578 180.895,385.578 179.905,385.487 179.300 C 385.395 178.695,385.320 179.190,385.320 180.400 M7.331 184.600 C 7.333 186.140,7.405 186.721,7.492 185.891 C 7.579 185.061,7.577 183.801,7.489 183.091 C 7.400 182.381,7.329 183.060,7.331 184.600 M299.309 184.800 C 299.309 185.790,299.387 186.195,299.482 185.700 C 299.578 185.205,299.578 184.395,299.482 183.900 C 299.387 183.405,299.309 183.810,299.309 184.800 M0.093 185.200 C 0.093 185.970,0.175 186.285,0.276 185.900 C 0.376 185.515,0.376 184.885,0.276 184.500 C 0.175 184.115,0.093 184.430,0.093 185.200 M273.293 185.600 C 273.293 186.370,273.375 186.685,273.476 186.300 C 273.576 185.915,273.576 185.285,273.476 184.900 C 273.375 184.515,273.293 184.830,273.293 185.600 M378.514 186.600 C 378.517 187.700,378.595 188.103,378.687 187.495 C 378.779 186.886,378.777 185.986,378.682 185.495 C 378.587 185.003,378.511 185.500,378.514 186.600 M385.770 193.600 C 385.770 198.330,385.828 200.265,385.898 197.900 C 385.969 195.535,385.969 191.665,385.898 189.300 C 385.828 186.935,385.770 188.870,385.770 193.600 M273.724 189.800 C 273.726 191.120,273.801 191.612,273.890 190.893 C 273.979 190.174,273.977 189.094,273.886 188.493 C 273.795 187.892,273.722 188.480,273.724 189.800 M111.354 194.400 C 111.354 197.150,111.418 198.275,111.496 196.900 C 111.574 195.525,111.574 193.275,111.496 191.900 C 111.418 190.525,111.354 191.650,111.354 194.400 M299.728 192.000 C 299.728 193.430,299.801 194.015,299.889 193.300 C 299.978 192.585,299.978 191.415,299.889 190.700 C 299.801 189.985,299.728 190.570,299.728 192.000 M85.337 194.600 C 85.339 196.360,85.409 197.030,85.493 196.089 C 85.578 195.149,85.577 193.709,85.491 192.889 C 85.405 192.070,85.336 192.840,85.337 194.600 M299.728 197.600 C 299.728 199.030,299.801 199.615,299.889 198.900 C 299.978 198.185,299.978 197.015,299.889 196.300 C 299.801 195.585,299.728 196.170,299.728 197.600 M378.531 199.800 C 378.533 201.340,378.605 201.921,378.692 201.091 C 378.779 200.261,378.777 199.001,378.689 198.291 C 378.600 197.581,378.529 198.260,378.531 199.800 M7.337 201.400 C 7.339 203.160,7.409 203.830,7.493 202.889 C 7.578 201.949,7.577 200.509,7.491 199.689 C 7.405 198.870,7.336 199.640,7.337 201.400 M0.128 201.200 C 0.128 202.630,0.201 203.215,0.289 202.500 C 0.378 201.785,0.378 200.615,0.289 199.900 C 0.201 199.185,0.128 199.770,0.128 201.200 M273.714 200.600 C 273.717 201.700,273.795 202.103,273.887 201.495 C 273.979 200.886,273.977 199.986,273.882 199.495 C 273.787 199.003,273.711 199.500,273.714 200.600 M299.301 205.000 C 299.305 205.880,299.387 206.193,299.483 205.695 C 299.579 205.198,299.575 204.478,299.475 204.095 C 299.375 203.713,299.296 204.120,299.301 205.000 M385.314 206.200 C 385.317 207.300,385.395 207.703,385.487 207.095 C 385.579 206.486,385.577 205.586,385.482 205.095 C 385.387 204.603,385.311 205.100,385.314 206.200 M378.109 207.600 C 378.109 208.590,378.187 208.995,378.282 208.500 C 378.378 208.005,378.378 207.195,378.282 206.700 C 378.187 206.205,378.109 206.610,378.109 207.600 M0.514 208.600 C 0.517 209.700,0.595 210.103,0.687 209.495 C 0.779 208.886,0.777 207.986,0.682 207.495 C 0.587 207.003,0.511 207.500,0.514 208.600 M298.893 208.400 C 298.893 209.170,298.975 209.485,299.076 209.100 C 299.176 208.715,299.176 208.085,299.076 207.700 C 298.975 207.315,298.893 207.630,298.893 208.400 M384.901 211.000 C 384.905 211.880,384.987 212.193,385.083 211.695 C 385.179 211.198,385.175 210.478,385.075 210.095 C 384.975 209.713,384.896 210.120,384.901 211.000 M0.901 213.000 C 0.905 213.880,0.987 214.193,1.083 213.695 C 1.179 213.198,1.175 212.478,1.075 212.095 C 0.975 211.713,0.896 212.120,0.901 213.000 M377.293 215.200 C 377.293 215.970,377.375 216.285,377.476 215.900 C 377.576 215.515,377.576 214.885,377.476 214.500 C 377.375 214.115,377.293 214.430,377.293 215.200 M8.493 216.800 C 8.493 217.570,8.575 217.885,8.676 217.500 C 8.776 217.115,8.776 216.485,8.676 216.100 C 8.575 215.715,8.493 216.030,8.493 216.800 M296.901 220.600 C 296.905 221.480,296.987 221.793,297.083 221.295 C 297.179 220.798,297.175 220.078,297.075 219.695 C 296.975 219.313,296.896 219.720,296.901 220.600 M296.493 224.400 C 296.493 225.170,296.575 225.485,296.676 225.100 C 296.776 224.715,296.776 224.085,296.676 223.700 C 296.575 223.315,296.493 223.630,296.493 224.400 M89.254 225.498 L 89.200 226.796 49.500 226.900 L 9.800 227.004 49.513 227.102 C 92.500 227.208,89.907 227.336,89.486 225.129 C 89.351 224.421,89.296 224.508,89.254 225.498 M375.600 226.333 C 375.600 226.685,365.825 226.824,335.900 226.898 L 296.200 226.996 335.778 227.100 C 373.317 227.199,376.847 227.114,375.873 226.140 C 375.723 225.990,375.600 226.077,375.600 226.333 M120.600 233.200 C 120.941 233.860,121.311 234.400,121.421 234.400 C 121.531 234.400,121.341 233.860,121.000 233.200 C 120.659 232.540,120.289 232.000,120.179 232.000 C 120.069 232.000,120.259 232.540,120.600 233.200 M11.606 234.700 C 11.611 235.204,11.702 235.259,11.932 234.896 C 12.187 234.495,20.250 234.413,51.326 234.496 C 72.817 234.553,90.400 234.465,90.400 234.300 C 90.400 234.135,72.670 234.000,51.000 234.000 C 13.741 234.000,11.600 234.038,11.606 234.700 M334.578 234.300 C 365.309 234.382,373.823 234.511,374.071 234.902 C 374.296 235.256,374.390 235.197,374.394 234.700 C 374.400 234.037,372.292 234.005,334.900 234.098 L 295.400 234.196 334.578 234.300 M294.893 239.200 C 294.893 239.970,294.975 240.285,295.076 239.900 C 295.176 239.515,295.176 238.885,295.076 238.500 C 294.975 238.115,294.893 238.430,294.893 239.200 M14.456 245.600 C 14.456 245.930,14.611 246.560,14.800 247.000 C 15.017 247.504,15.144 247.578,15.144 247.200 C 15.144 246.870,14.989 246.240,14.800 245.800 C 14.583 245.296,14.456 245.222,14.456 245.600 M129.600 246.925 C 129.600 246.994,130.185 247.579,130.900 248.225 L 132.200 249.400 131.025 248.100 C 129.930 246.888,129.600 246.616,129.600 246.925 M252.378 250.300 L 251.000 251.800 252.500 250.422 C 253.325 249.663,254.000 248.988,254.000 248.922 C 254.000 248.616,253.662 248.904,252.378 250.300 M135.400 253.200 C 136.928 254.740,138.269 256.000,138.379 256.000 C 138.489 256.000,137.328 254.740,135.800 253.200 C 134.272 251.660,132.931 250.400,132.821 250.400 C 132.711 250.400,133.872 251.660,135.400 253.200 M16.229 251.600 C 16.376 252.150,16.664 252.870,16.867 253.200 C 17.125 253.617,17.157 253.495,16.971 252.800 C 16.824 252.250,16.536 251.530,16.333 251.200 C 16.075 250.783,16.043 250.905,16.229 251.600 M246.778 255.900 L 245.400 257.400 246.900 256.022 C 248.296 254.738,248.584 254.400,248.278 254.400 C 248.212 254.400,247.537 255.075,246.778 255.900 M140.200 257.566 C 140.978 258.461,143.200 260.198,143.200 259.912 C 143.200 259.834,142.345 259.067,141.300 258.208 C 140.255 257.349,139.760 257.060,140.200 257.566 M363.665 266.617 C 362.995 268.088,363.123 268.402,363.847 267.065 C 364.186 266.440,364.388 265.854,364.296 265.763 C 364.205 265.671,363.921 266.056,363.665 266.617 M273.800 269.600 C 274.883 270.700,275.860 271.600,275.970 271.600 C 276.080 271.600,275.283 270.700,274.200 269.600 C 273.117 268.500,272.140 267.600,272.030 267.600 C 271.920 267.600,272.717 268.500,273.800 269.600 M23.600 270.553 C 23.600 270.982,24.790 273.200,25.021 273.200 C 25.131 273.200,24.923 272.615,24.559 271.900 C 23.817 270.440,23.600 270.136,23.600 270.553 M166.000 272.333 C 166.330 272.536,167.050 272.824,167.600 272.971 C 168.295 273.157,168.417 273.125,168.000 272.867 C 167.670 272.664,166.950 272.376,166.400 272.229 C 165.705 272.043,165.583 272.075,166.000 272.333 M217.800 272.614 C 216.800 273.096,216.766 273.151,217.600 272.948 C 218.733 272.671,220.007 272.021,219.400 272.030 C 219.180 272.033,218.460 272.296,217.800 272.614 M359.878 275.005 C 359.512 275.772,359.295 276.400,359.396 276.400 C 359.670 276.400,360.884 273.951,360.701 273.768 C 360.614 273.681,360.244 274.238,359.878 275.005 M120.000 274.125 C 120.000 274.194,120.585 274.779,121.300 275.425 L 122.600 276.600 121.425 275.300 C 120.330 274.088,120.000 273.816,120.000 274.125 M262.575 276.500 L 261.400 277.800 262.700 276.625 C 263.415 275.979,264.000 275.394,264.000 275.325 C 264.000 275.016,263.670 275.288,262.575 276.500 M200.900 276.276 C 201.285 276.376,201.915 276.376,202.300 276.276 C 202.685 276.175,202.370 276.093,201.600 276.093 C 200.830 276.093,200.515 276.175,200.900 276.276 M268.000 278.600 C 269.417 280.030,270.667 281.200,270.777 281.200 C 270.887 281.200,269.817 280.030,268.400 278.600 C 266.983 277.170,265.733 276.000,265.623 276.000 C 265.513 276.000,266.583 277.170,268.000 278.600 M188.880 276.698 C 190.794 276.771,194.034 276.771,196.080 276.698 C 198.126 276.626,196.560 276.566,192.600 276.565 C 188.640 276.565,186.966 276.624,188.880 276.698 M357.800 279.200 C 357.459 279.860,357.269 280.400,357.379 280.400 C 357.489 280.400,357.859 279.860,358.200 279.200 C 358.541 278.540,358.731 278.000,358.621 278.000 C 358.511 278.000,358.141 278.540,357.800 279.200 M98.856 280.400 C 98.856 280.730,99.011 281.360,99.200 281.800 C 99.417 282.304,99.544 282.378,99.544 282.000 C 99.544 281.670,99.389 281.040,99.200 280.600 C 98.983 280.096,98.856 280.022,98.856 280.400 M242.200 290.400 C 241.540 290.837,241.180 291.192,241.400 291.188 C 241.801 291.182,243.976 289.623,243.600 289.612 C 243.490 289.608,242.860 289.963,242.200 290.400 M104.629 299.200 C 104.776 299.750,105.064 300.470,105.267 300.800 C 105.525 301.217,105.557 301.095,105.371 300.400 C 105.224 299.850,104.936 299.130,104.733 298.800 C 104.475 298.383,104.443 298.505,104.629 299.200 M112.229 299.200 C 112.376 299.750,112.664 300.470,112.867 300.800 C 113.125 301.217,113.157 301.095,112.971 300.400 C 112.824 299.850,112.536 299.130,112.333 298.800 C 112.075 298.383,112.043 298.505,112.229 299.200 M331.185 304.490 L 337.370 310.780 338.285 309.920 C 338.788 309.447,339.200 308.962,339.200 308.841 C 339.200 308.721,338.799 309.024,338.308 309.514 L 337.416 310.406 331.208 304.303 L 325.000 298.200 331.185 304.490 M179.300 301.876 C 179.685 301.976,180.315 301.976,180.700 301.876 C 181.085 301.775,180.770 301.693,180.000 301.693 C 179.230 301.693,178.915 301.775,179.300 301.876 M204.500 301.876 C 204.885 301.976,205.515 301.976,205.900 301.876 C 206.285 301.775,205.970 301.693,205.200 301.693 C 204.430 301.693,204.115 301.775,204.500 301.876 M182.500 302.276 C 182.885 302.376,183.515 302.376,183.900 302.276 C 184.285 302.175,183.970 302.093,183.200 302.093 C 182.430 302.093,182.115 302.175,182.500 302.276 M201.505 302.283 C 202.002 302.379,202.722 302.375,203.105 302.275 C 203.487 302.175,203.080 302.096,202.200 302.101 C 201.320 302.105,201.007 302.187,201.505 302.283 M188.697 302.691 C 189.083 302.965,189.218 308.917,189.301 329.222 L 189.409 355.400 189.404 329.033 C 189.401 305.938,189.326 302.646,188.800 302.503 C 188.359 302.382,188.332 302.432,188.697 302.691 M276.987 310.056 C 276.813 310.356,276.826 310.459,277.017 310.286 C 277.206 310.113,279.755 312.361,282.681 315.280 C 285.606 318.200,288.000 320.499,288.000 320.389 C 288.000 319.658,277.261 309.582,276.987 310.056 M52.000 315.325 C 52.000 315.394,52.585 315.979,53.300 316.625 L 54.600 317.800 53.425 316.500 C 52.330 315.288,52.000 315.016,52.000 315.325 M352.600 326.000 C 358.097 331.500,362.684 336.000,362.794 336.000 C 362.904 336.000,358.497 331.500,353.000 326.000 C 347.503 320.500,342.916 316.000,342.806 316.000 C 342.696 316.000,347.103 320.500,352.600 326.000 M45.999 319.199 C 46.919 320.298,47.881 321.326,48.136 321.483 C 48.391 321.639,47.723 320.740,46.651 319.484 C 45.580 318.228,44.618 317.200,44.514 317.200 C 44.410 317.200,45.079 318.099,45.999 319.199 M273.265 318.217 C 272.595 319.688,272.723 320.002,273.447 318.665 C 273.786 318.040,273.988 317.454,273.896 317.363 C 273.805 317.271,273.521 317.656,273.265 318.217 M56.600 320.400 C 57.459 321.280,58.252 322.000,58.362 322.000 C 58.472 322.000,57.859 321.280,57.000 320.400 C 56.141 319.520,55.348 318.800,55.238 318.800 C 55.128 318.800,55.741 319.520,56.600 320.400 M50.800 324.600 C 51.546 325.370,52.247 326.000,52.357 326.000 C 52.467 326.000,51.946 325.370,51.200 324.600 C 50.454 323.830,49.753 323.200,49.643 323.200 C 49.533 323.200,50.054 323.830,50.800 324.600 M56.400 330.600 C 57.146 331.370,57.847 332.000,57.957 332.000 C 58.067 332.000,57.546 331.370,56.800 330.600 C 56.054 329.830,55.353 329.200,55.243 329.200 C 55.133 329.200,55.654 329.830,56.400 330.600 M301.800 334.400 C 303.771 336.380,305.473 338.000,305.583 338.000 C 305.693 338.000,304.171 336.380,302.200 334.400 C 300.229 332.420,298.527 330.800,298.417 330.800 C 298.307 330.800,299.829 332.420,301.800 334.400 M114.000 362.151 C 114.000 362.234,114.305 362.549,114.677 362.851 C 115.123 363.213,115.252 363.231,115.057 362.905 C 114.824 362.518,117.591 362.387,127.880 362.300 L 141.000 362.189 127.500 362.094 C 120.075 362.042,114.000 362.068,114.000 362.151 M151.600 362.326 C 151.600 362.510,152.095 363.097,152.700 363.630 L 153.800 364.600 152.830 363.500 L 151.861 362.400 170.523 362.400 L 189.185 362.400 189.304 371.200 L 189.423 380.000 189.412 371.100 L 189.400 362.200 170.500 362.096 C 160.105 362.039,151.600 362.143,151.600 362.326 M196.662 362.300 C 196.560 362.465,204.950 362.551,215.307 362.492 L 234.138 362.384 233.369 363.292 L 232.600 364.200 233.491 363.447 C 233.980 363.032,234.285 362.537,234.167 362.347 C 233.906 361.924,196.923 361.878,196.662 362.300 M244.162 362.900 C 243.401 363.799,243.401 363.799,244.231 363.100 C 244.987 362.464,246.253 362.401,258.031 362.413 C 269.522 362.424,270.911 362.492,270.224 363.013 C 269.328 363.690,269.690 363.794,270.826 363.186 C 272.766 362.148,271.203 362.000,258.262 362.000 L 244.924 362.000 244.162 362.900 M143.600 365.000 C 145.017 366.430,146.267 367.600,146.377 367.600 C 146.487 367.600,145.417 366.430,144.000 365.000 C 142.583 363.570,141.333 362.400,141.223 362.400 C 141.113 362.400,142.183 363.570,143.600 365.000 M332.200 365.200 C 333.506 366.520,334.665 367.600,334.775 367.600 C 334.885 367.600,333.906 366.520,332.600 365.200 C 331.294 363.880,330.135 362.800,330.025 362.800 C 329.915 362.800,330.894 363.880,332.200 365.200 M238.575 368.100 L 237.400 369.400 238.700 368.225 C 239.415 367.579,240.000 366.994,240.000 366.925 C 240.000 366.616,239.670 366.888,238.575 368.100 M158.000 367.746 C 158.000 367.856,158.540 368.330,159.200 368.800 C 159.860 369.270,160.400 369.564,160.400 369.454 C 160.400 369.344,159.860 368.870,159.200 368.400 C 158.540 367.930,158.000 367.636,158.000 367.746 M266.400 372.600 C 265.850 372.914,265.580 373.172,265.800 373.172 C 266.020 373.172,266.650 372.914,267.200 372.600 C 267.750 372.286,268.020 372.028,267.800 372.028 C 267.580 372.028,266.950 372.286,266.400 372.600 M227.797 376.403 C 227.081 377.195,227.090 377.202,228.435 376.945 C 230.100 376.628,230.438 376.400,229.243 376.400 C 228.751 376.400,228.463 376.221,228.600 376.000 C 229.015 375.328,228.566 375.554,227.797 376.403 M156.800 376.387 C 155.804 376.651,155.804 376.653,157.000 376.891 C 158.304 377.150,158.762 376.979,158.173 376.454 C 157.968 376.271,157.350 376.241,156.800 376.387 M204.200 378.800 C 203.696 379.017,203.622 379.144,204.000 379.144 C 204.330 379.144,204.960 378.989,205.400 378.800 C 205.904 378.583,205.978 378.456,205.600 378.456 C 205.270 378.456,204.640 378.611,204.200 378.800 M249.000 378.800 C 248.496 379.017,248.422 379.144,248.800 379.144 C 249.130 379.144,249.760 378.989,250.200 378.800 C 250.704 378.583,250.778 378.456,250.400 378.456 C 250.070 378.456,249.440 378.611,249.000 378.800 M141.000 380.400 C 141.440 380.589,142.070 380.744,142.400 380.744 C 142.778 380.744,142.704 380.617,142.200 380.400 C 141.760 380.211,141.130 380.056,140.800 380.056 C 140.422 380.056,140.496 380.183,141.000 380.400 M235.600 382.400 C 234.796 382.657,234.757 382.723,235.400 382.732 C 235.840 382.738,236.560 382.589,237.000 382.400 C 238.019 381.962,236.968 381.962,235.600 382.400 M358.400 391.400 C 362.466 395.470,365.882 398.800,365.992 398.800 C 366.102 398.800,362.866 395.470,358.800 391.400 C 354.734 387.330,351.318 384.000,351.208 384.000 C 351.098 384.000,354.334 387.330,358.400 391.400 M212.900 386.276 C 213.285 386.376,213.915 386.376,214.300 386.276 C 214.685 386.175,214.370 386.093,213.600 386.093 C 212.830 386.093,212.515 386.175,212.900 386.276 M174.300 386.682 C 174.795 386.778,175.605 386.778,176.100 386.682 C 176.595 386.587,176.190 386.509,175.200 386.509 C 174.210 386.509,173.805 386.587,174.300 386.682 M209.100 386.682 C 209.595 386.778,210.405 386.778,210.900 386.682 C 211.395 386.587,210.990 386.509,210.000 386.509 C 209.010 386.509,208.605 386.587,209.100 386.682 M179.705 387.087 C 180.314 387.179,181.214 387.177,181.705 387.082 C 182.197 386.987,181.700 386.911,180.600 386.914 C 179.500 386.917,179.097 386.995,179.705 387.087 M203.900 387.082 C 204.395 387.178,205.205 387.178,205.700 387.082 C 206.195 386.987,205.790 386.909,204.800 386.909 C 203.810 386.909,203.405 386.987,203.900 387.082 M191.091 387.489 C 191.801 387.577,193.061 387.579,193.891 387.492 C 194.721 387.405,194.140 387.333,192.600 387.331 C 191.060 387.329,190.381 387.400,191.091 387.489 M393.600 397.000 C 392.628 397.990,391.923 398.800,392.033 398.800 C 392.143 398.800,393.028 397.990,394.000 397.000 C 394.972 396.010,395.677 395.200,395.567 395.200 C 395.457 395.200,394.572 396.010,393.600 397.000 " stroke="none" fill="#6579fa" fill-rule="evenodd"></path></g></svg>